<svg xmlns="http://www.w3.org/2000/svg" width="332.53391mm" height="211.66667mm" viewBox="0 0 332.53392 211.66667"><path d="M158.087 182.703C174.09 193.613 193.4 200 214.221 200c55.206 0 99.984-44.808 99.984-100.014 0-11.7-2.038-23.02-5.757-33.435zM100.026 0C44.796 0 0 44.81 0 99.986c0 11.741 2.02 23.073 5.758 33.489L156.124 17.292C140.087 6.388 120.764 0 100.026 0M157.095 80.913l104.548-68.92c-4.153-2.276-8.455-4.243-12.953-5.835L157.095 78.03l-131.833 88.35a99.592 99.592 0 0 0 9.02 8.973zM157.095 101.449 276.6 21.857c-3.44-2.686-7.053-5.265-10.862-7.547L157.095 98.531 37.64 178.147c3.381 2.71 7.059 5.252 10.79 7.564zM157.095 121.943 288.94 33.63c-2.822-3.238-5.852-6.204-9.055-8.972l-122.79 94.369L52.565 188c4.118 2.258 8.432 4.248 12.971 5.882zM157.095 60.412 243.36 4.38c-5.116-1.622-10.363-2.751-15.812-3.482l-70.453 56.59L15.22 153.036c2.3 3.606 4.7 7 7.35 10.285zM157.095 39.882 219.973.19C218.095.101 216.14 0 214.22 0a98.55 98.55 0 0 0-17.986 1.634l-39.14 35.36L7.514 138.132c1.622 3.915 3.529 7.712 5.603 11.444zM157.095 142.49l141.863-95.504c-2.234-3.624-4.688-7.011-7.35-10.303L157.095 139.579l-86.288 56.038a95.967 95.967 0 0 0 15.853 3.488zM157.095 162.962 306.653 61.926c-1.61-3.999-3.488-7.772-5.591-11.492L157.095 160.07l-62.889 39.757c1.86.119 3.809.172 5.823.172 6.097 0 12.145-.564 18.01-1.634z" style="fill:#1aae48;fill-opacity:1;fill-rule:nonzero;stroke:none;stroke-width:5.94191" transform="scale(1.05833)"/></svg>