<svg width="200" height="250" viewBox="0 0 200 250" fill="none" xmlns="http://www.w3.org/2000/svg">
<path d="M118.091 9.95343C117.981 9.94344 117.881 9.92344 117.781 9.90344C115.571 9.56346 113.451 9.31347 112.361 9.24348C111.611 9.20348 109.631 9.13348 108.991 9.14348C105.111 9.17348 101.111 9.74345 96.7215 11.2534C88.9718 13.9232 82.1819 17.793 76.5921 23.2426C74.9621 24.8225 72.0922 28.1423 69.7623 31.3821C66.5523 35.8419 64.9124 39.0917 62.9024 43.5214C57.2926 55.8607 56.3626 71.1797 61.4425 83.399C65.6324 93.7284 74.1221 101.658 84.6119 106.438C89.3817 108.607 94.3916 110.387 99.5715 111.157C106.501 112.177 113.601 112.337 119.851 111.077C126.811 109.667 134.091 106.818 139.32 102.088C142.62 99.098 144.97 95.5482 145.25 91.0785C145.42 88.4387 144.92 86.0188 144.11 83.849C142.77 80.2392 140.87 77.8093 137.51 74.3495C130.711 67.6299 120.911 63.5002 111.451 61.3403C104.921 59.9404 98.1515 59.6504 91.4617 59.7404C85.2719 59.8704 79.062 60.4304 73.0122 61.6903C67.0023 63.0302 61.1825 65.1801 55.5426 67.6399C51.0728 69.5998 46.6129 71.9297 42.463 74.4095C36.1731 78.1693 26.7334 85.4389 21.1235 93.3384C13.5937 103.168 10.0538 116.837 11.9938 129.066C12.9238 134.236 15.3537 138.886 18.7436 143.165C27.3534 153.935 40.553 160.334 53.8927 163.924C77.4521 170.494 102.501 168.944 126.291 164.314C145.94 160.334 170.44 151.895 185.429 138.566C188.329 135.816 191.739 132.266 192.599 128.476C193.379 124.706 191.749 121.207 188.039 119.327C186.359 118.477 183.689 117.797 181.799 117.627C176.859 117.177 171.7 117.867 166.58 119.067C156.96 121.317 147.82 125.046 138.96 129.316C130.041 133.626 121.881 139.226 114.051 145.245C106.351 151.045 99.2515 157.724 93.7016 165.554C86.5818 175.363 85.0619 185.573 86.0718 195.352C87.1818 206.132 92.9616 216.631 103.751 223.49C107.821 226.08 112.311 227.97 116.911 229.49C122.581 231.42 128.481 232.66 134.261 230.97C137.04 230.24 140.52 228.63 140.29 225.43C139.84 222.441 136.221 220.941 133.421 220.631C128.781 219.961 124.071 221.221 120.161 223.74C115.261 226.95 111.151 231.62 108.621 236.84C106.751 240.829 105.741 245.209 105.781 249.509C105.781 249.959 105.391 250.009 105.031 249.999C104.511 249.979 103.991 249.939 103.481 249.859C102.581 249.719 101.581 249.539 100.721 249.249C100.191 249.069 99.1615 248.759 99.2715 247.999C100.451 239.989 103.281 233.89 108.751 227.94C114.151 222.011 121.441 216.941 129.801 216.781C134.811 216.671 140.61 217.931 143.15 222.681C144.31 224.92 144.05 227.72 142.69 229.82C140.22 233.49 135.851 234.68 131.791 235.61C125.651 236.71 119.241 235.88 113.201 234.66C111.231 234.26 108.651 233.43 106.761 232.84C103.041 231.68 99.4315 230.03 96.1916 228.26C89.9317 224.85 85.4618 220.801 81.7619 216.141C77.4021 210.631 75.1321 204.172 74.1321 197.632C71.9722 183.503 77.6021 167.744 90.7517 153.645C96.0316 147.785 102.361 142.835 108.861 138.376C119.481 130.956 131.911 123.957 144.1 119.407C156.34 114.877 168.37 111.267 181.639 112.267C185.989 112.717 190.369 113.857 193.959 116.517C197.919 119.397 200.369 124.446 199.949 129.326C199.139 137.906 192.619 145.335 186.459 150.785C180.389 156.115 173.35 160.194 166.1 163.574C154.25 169.204 141.7 173.424 128.911 176.323C108.371 180.773 86.8818 182.893 65.9824 179.723C50.1028 177.193 33.9032 172.244 20.8035 162.364C10.6838 154.735 1.90405 143.625 0.314087 130.726C-1.43587 115.487 4.24398 99.998 14.4237 88.6187C21.2035 80.5692 29.7633 73.9296 38.8931 68.6299C45.9029 64.8001 52.9527 61.9103 60.4025 59.3004C70.2523 55.7707 84.9519 53.8108 91.0917 53.3408C97.6615 52.8408 109.021 53.1108 114.991 54.3307C122.131 55.7907 129.341 57.5205 137.43 62.6902C140.86 64.8201 144.65 67.6799 147.19 71.0997C149.55 74.2795 151.12 77.5593 151.78 79.8492C152.93 83.819 153.08 88.6787 152.16 92.3084C150.76 97.8581 146.65 103.278 142.06 106.898C136.24 111.487 128.941 114.947 121.131 117.157C110.401 120.197 98.7015 120.377 88.1918 118.317C79.372 116.557 71.8022 113.127 65.6524 108.447C57.6026 102.328 51.6027 93.4184 48.8528 83.909C46.1029 74.3995 46.5829 65.3101 49.4828 54.8007C50.8528 49.631 53.0427 44.5713 55.6226 39.9016C58.2026 35.2119 61.0225 30.7622 64.5524 26.6424C74.9921 14.4432 90.5717 5.17372 106.331 1.84393C110.881 0.883984 116.071 0.164027 118.731 0.054034C122.001 -0.0759581 123.911 0.0140367 125.901 0.484008C126.591 0.643999 126.901 1.43395 126.521 2.01392C126.521 2.01392 122.201 8.8735 122.191 8.8835C121.311 10.2234 119.541 10.1134 118.101 9.91344L118.091 9.95343Z" fill="black"/>
</svg>
